# xmcd CD database file
#
# Track frame offsets:
#	150
#	22840
#	40100
#	58560
#	76650
#	89310
#	103465
#	118125
#	133050
#	153300
#
# Disc length: 2407 seconds
#
# Revision: 0
# Processed by: cddbd v1.5.1PL0 Copyright (c) Steve Scherf et al.
# Submitted via: CDex 1.51
#
DISCID=7709650a
DTITLE=The　SANYONS - SANYONS
DYEAR=2004
DGENRE=Punk Rock
TTITLE0=僕立宣言
TTITLE1=サンヨンズのテーマ
TTITLE2=少年シャウト
TTITLE3=青い鳥
TTITLE4=みんなの歌
TTITLE5=叫べシャケベン
TTITLE6=拳
TTITLE7=カッスユー
TTITLE8=悪ぶって死んじまえ
TTITLE9=清く正しく美しく
EXTD=YEAR: 2004
EXTT0=
EXTT1=
EXTT2=
EXTT3=
EXTT4=
EXTT5=
EXTT6=
EXTT7=
EXTT8=
EXTT9=
PLAYORDER=
